<?xml version="1.0" encoding="UTF-8"?>
<!DOCTYPE svg PUBLIC "-//W3C//DTD SVG 1.1//EN" "http://www.w3.org/Graphics/SVG/1.1/DTD/svg11.dtd">
<!-- Creator: CorelDRAW 2017 -->
<svg xmlns="http://www.w3.org/2000/svg" xml:space="preserve" width="100mm" height="141.429mm" version="1.1" style="shape-rendering:geometricPrecision; text-rendering:geometricPrecision; image-rendering:optimizeQuality; fill-rule:evenodd; clip-rule:evenodd"
viewBox="0 0 10000 14142.86"
 xmlns:xlink="http://www.w3.org/1999/xlink">
 <defs>
  <style type="text/css">
   <![CDATA[
    .fil0 {fill:#0EA089;fill-rule:nonzero}
    .fil5 {fill:#0EA089;fill-rule:nonzero}
    .fil4 {fill:url(#id0);fill-rule:nonzero}
    .fil2 {fill:url(#id1);fill-rule:nonzero}
    .fil3 {fill:url(#id2);fill-rule:nonzero}
    .fil1 {fill:url(#id3);fill-rule:nonzero}
   ]]>
  </style>
  <linearGradient id="id0" gradientUnits="userSpaceOnUse" x1="3117.21" y1="2992.27" x2="2656.9" y2="2992.27">
   <stop offset="0" style="stop-opacity:1; stop-color:#FFF212"/>
   <stop offset="1" style="stop-opacity:1; stop-color:#D2AD3B"/>
  </linearGradient>
  <linearGradient id="id1" gradientUnits="userSpaceOnUse" xlink:href="#id0" x1="3117.21" y1="2358.5" x2="2656.9" y2="2358.5">
  </linearGradient>
  <linearGradient id="id2" gradientUnits="userSpaceOnUse" xlink:href="#id0" x1="2453.41" y1="2992.27" x2="1993.1" y2="2992.27">
  </linearGradient>
  <linearGradient id="id3" gradientUnits="userSpaceOnUse" xlink:href="#id0" x1="2453.41" y1="2358.5" x2="1993.1" y2="2358.5">
  </linearGradient>
 </defs>
 <g id="Layer_x0020_1">
  <metadata id="CorelCorpID_0Corel-Layer"/>
  <g id="_1711195661392">
   <path class="fil0" d="M2262.05 1046.59c881.64,590.73 1775.28,1110.95 2674.05,1601.1 -308.43,-280.08 -711.44,-610.35 -1120.93,-964.44l0 -926.85 -279.18 0 0 682.03c-493.93,-440.25 -968.07,-906.68 -1265.91,-1352.51 -647.03,953.6 -1352.49,1799.38 -2095.88,2575.11 726.41,-504.41 1425.68,-1038.91 2087.85,-1614.44z"/>
   <g>
    <polygon class="fil1" points="1993.1,2115.49 2453.41,2115.49 2453.41,2582.48 1993.1,2582.48 "/>
    <polygon class="fil2" points="2656.9,2115.49 3117.21,2115.49 3117.21,2582.48 2656.9,2582.48 "/>
    <polygon class="fil3" points="1993.1,2749.26 2453.41,2749.26 2453.41,3216.25 1993.1,3216.25 "/>
    <polygon class="fil4" points="2656.9,2749.26 3117.21,2749.26 3117.21,3216.25 2656.9,3216.25 "/>
   </g>
   <g>
    <polygon class="fil0" points="599.65,2217.06 903.6,2078.46 903.6,4847.82 599.65,4847.82 "/>
    <polygon class="fil0" points="4510.67,2282.06 4510.67,4847.82 4194.6,4802.63 4194.6,2236.87 "/>
   </g>
   <rect class="fil5" x="174.23" y="4627.65" width="4761.87" height="220.16"/>
  </g>
 </g>
</svg>
